<svg width="12" height="12" viewBox="0 0 12 12" fill="none" xmlns="http://www.w3.org/2000/svg">
<path id="icon_caution" fill-rule="evenodd" clip-rule="evenodd" d="M6 12C9.31371 12 12 9.31371 12 6C12 2.68629 9.31371 0 6 0C2.68629 0 0 2.68629 0 6C0 9.31371 2.68629 12 6 12ZM5 3C5 2.44772 5.44772 2 6 2C6.55228 2 7 2.44772 7 3V6C7 6.55228 6.55228 7 6 7C5.44772 7 5 6.55228 5 6V3ZM5 9C5 8.44772 5.44772 8 6 8C6.55228 8 7 8.44772 7 9C7 9.55228 6.55228 10 6 10C5.44772 10 5 9.55228 5 9Z" fill="#F01111"/>
</svg>
