<svg width="135" height="54" viewBox="0 0 135 54" fill="none" xmlns="http://www.w3.org/2000/svg">
<g id="Levels">
<g id="Battery">
<rect id="Border" opacity="0.35" x="79.4351" y="23.5" width="24" height="12" rx="3.8" stroke="#282E34"/>
<path id="Cap" opacity="0.4" d="M104.935 27.7811V31.8566C105.74 31.5114 106.263 30.7085 106.263 29.8189C106.263 28.9293 105.74 28.1263 104.935 27.7811Z" fill="#282E34"/>
<rect id="Capacity" x="80.9351" y="25" width="21" height="9" rx="2.5" fill="#282E34"/>
</g>
<path id="Wifi" fill-rule="evenodd" clip-rule="evenodd" d="M63.2056 26.104C65.6928 26.1041 68.0848 27.0262 69.8873 28.6797C70.023 28.8074 70.24 28.8058 70.3736 28.6761L71.6711 27.4126C71.7388 27.3469 71.7766 27.2578 71.776 27.1651C71.7754 27.0724 71.7366 26.9838 71.6681 26.9188C66.9371 22.5441 59.4734 22.5441 54.7424 26.9188C54.6739 26.9837 54.635 27.0724 54.6343 27.165C54.6337 27.2577 54.6714 27.3468 54.739 27.4126L56.0369 28.6761C56.1705 28.8059 56.3876 28.8076 56.5233 28.6797C58.326 27.0261 60.7183 26.104 63.2056 26.104ZM63.2023 30.3243C64.5596 30.3242 65.8685 30.836 66.8746 31.7601C67.0107 31.8913 67.2251 31.8884 67.3577 31.7537L68.645 30.4344C68.7128 30.3652 68.7504 30.2713 68.7494 30.1738C68.7484 30.0762 68.709 29.9831 68.6398 29.9153C65.576 27.0245 60.8312 27.0245 57.7674 29.9153C57.6982 29.9831 57.6587 30.0762 57.6578 30.1738C57.6569 30.2714 57.6946 30.3653 57.7626 30.4344L59.0495 31.7537C59.1821 31.8884 59.3965 31.8913 59.5326 31.7601C60.538 30.8366 61.8459 30.3249 63.2023 30.3243ZM65.7267 33.1179C65.7286 33.2232 65.6916 33.3248 65.6243 33.3986L63.4476 35.8533C63.3838 35.9255 63.2968 35.9661 63.206 35.9661C63.1153 35.9661 63.0283 35.9255 62.9645 35.8533L60.7874 33.3986C60.7202 33.3247 60.6832 33.2231 60.6852 33.1178C60.6872 33.0124 60.728 32.9127 60.798 32.842C62.1881 31.5282 64.224 31.5282 65.6141 32.842C65.684 32.9127 65.7248 33.0125 65.7267 33.1179Z" fill="#282E34"/>
<path id="Cellular Connection" fill-rule="evenodd" clip-rule="evenodd" d="M47.1351 24.6821C47.1351 24.049 46.6576 23.5358 46.0685 23.5358H45.0018C44.4127 23.5358 43.9351 24.049 43.9351 24.6821V34.616C43.9351 35.2491 44.4127 35.7622 45.0018 35.7622H46.0685C46.6576 35.7622 47.1351 35.2491 47.1351 34.616V24.6821ZM39.701 25.9811H40.7677C41.3568 25.9811 41.8343 26.5066 41.8343 27.1548V34.5885C41.8343 35.2367 41.3568 35.7622 40.7677 35.7622H39.701C39.1119 35.7622 38.6343 35.2367 38.6343 34.5885V27.1548C38.6343 26.5066 39.1119 25.9811 39.701 25.9811ZM35.3692 28.6302H34.3026C33.7135 28.6302 33.2359 29.1623 33.2359 29.8188V34.5736C33.2359 35.23 33.7135 35.7622 34.3026 35.7622H35.3692C35.9583 35.7622 36.4359 35.23 36.4359 34.5736V29.8188C36.4359 29.1623 35.9583 28.6302 35.3692 28.6302ZM30.0685 31.0755H29.0018C28.4127 31.0755 27.9351 31.6 27.9351 32.2471V34.5905C27.9351 35.2377 28.4127 35.7622 29.0018 35.7622H30.0685C30.6576 35.7622 31.1351 35.2377 31.1351 34.5905V32.2471C31.1351 31.6 30.6576 31.0755 30.0685 31.0755Z" fill="#282E34"/>
</g>
</svg>
